<?xml version="1.0" encoding="UTF-8"?>
<svg id="Layer_1" xmlns="http://www.w3.org/2000/svg" width="45" height="20" version="1.1" xmlns:xlink="http://www.w3.org/1999/xlink" viewBox="0 0 45 20">
  <!-- Generator: Adobe Illustrator 29.3.1, SVG Export Plug-In . SVG Version: 2.1.0 Build 151)  -->
  <defs>
    <style>
      .st0 {
        fill: url(#linear-gradient2);
      }

      .st1 {
        fill: url(#linear-gradient10);
      }

      .st2 {
        fill: url(#linear-gradient1);
      }

      .st3 {
        fill: url(#linear-gradient9);
      }

      .st4 {
        fill: url(#linear-gradient8);
      }

      .st5 {
        fill: url(#linear-gradient7);
      }

      .st6 {
        fill: url(#linear-gradient4);
      }

      .st7 {
        fill: url(#linear-gradient5);
      }

      .st8 {
        fill: url(#linear-gradient3);
      }

      .st9 {
        fill: url(#linear-gradient6);
      }

      .st10 {
        fill: url(#linear-gradient);
      }
    </style>
    <linearGradient id="linear-gradient" x1="-7.9" y1="7.7" x2="39" y2="39.6" gradientUnits="userSpaceOnUse">
      <stop offset=".2" stop-color="#7d0b56"/>
      <stop offset="1" stop-color="#fcd7cb"/>
    </linearGradient>
    <linearGradient id="linear-gradient1" x1="-4.4" y1="2.5" x2="42.5" y2="34.4" xlink:href="#linear-gradient"/>
    <linearGradient id="linear-gradient2" x1="-1.2" y1="-2.1" x2="45.7" y2="29.7" xlink:href="#linear-gradient"/>
    <linearGradient id="linear-gradient3" x1=".3" y1="-4.5" x2="47.3" y2="27.4" xlink:href="#linear-gradient"/>
    <linearGradient id="linear-gradient4" x1="2.8" y1="-8.2" x2="49.8" y2="23.7" xlink:href="#linear-gradient"/>
    <linearGradient id="linear-gradient5" x1="-1.5" y1="-1.8" x2="45.5" y2="30.1" xlink:href="#linear-gradient"/>
    <linearGradient id="linear-gradient6" x1="1.5" y1="-6.2" x2="48.4" y2="25.7" xlink:href="#linear-gradient"/>
    <linearGradient id="linear-gradient7" x1="5.2" y1="-11.7" x2="52.2" y2="20.2" xlink:href="#linear-gradient"/>
    <linearGradient id="linear-gradient8" x1="4.3" y1="-10.3" x2="51.2" y2="21.6" xlink:href="#linear-gradient"/>
    <linearGradient id="linear-gradient9" x1="7.8" y1="-15.5" x2="54.8" y2="16.4" xlink:href="#linear-gradient"/>
    <linearGradient id="linear-gradient10" x1="-3" y1=".4" x2="43.9" y2="32.3" xlink:href="#linear-gradient"/>
  </defs>
  <path class="st10" d="M6.3,17.1c-.3-.8-.7-1.3-1.1-1.6,1.4-.2,2.7-.9,2.7-2.5s-.9-1.8-2.4-1.8-1.4,0-2.1,0h0c-.5,0-.9,0-1.3,0v.2c.3,0,.5.2.4.6-.4,2.3-.9,4.5-1.4,6.7,0,.4-.3.5-.7.6v.2c.4,0,.9,0,1.4,0h0c.5,0,.9,0,1.4,0v-.2c-.3,0-.5-.2-.4-.6.2-1.2.4-2.1.6-3.1.8.2,1.7,1.8,2.3,3.9.3,0,.6,0,1.1,0s.9,0,1.2,0v-.2c-.4-.1-.8-.7-1.5-2.2ZM3.3,15.1c.2-1.1.5-2.1.8-3.4.2,0,.4,0,.5,0,1,0,1.5.5,1.5,1.4s-1,2-2.3,2h-.6Z"/>
  <path class="st2" d="M23.5,14v-.2c-.4,0-.6,0-1,0s-.6,0-1.1,0v.2c.3,0,.4.2.3.4-.5,1.1-1,2.2-1.8,3.4-.3-1.2-.5-2.8-.6-4-.3,0-.6,0-.9,0-.6,1.1-1.3,2.4-2.2,4-.2-1.2-.5-2.7-.6-4.1h-.2c-.5.3-1.4.6-2,.7v.2c-.3-.6-1-1-2.1-1-2.2,0-3.7,1.4-3.7,3.4s1.1,2.5,2.7,2.5,1.7-.3,2.4-1l-.2-.3c-.6.5-1.2.7-1.8.7s-1.4-.6-1.4-1.7,0-.3,0-.4c2.5,0,4.1-.9,4.1-2s0-.3,0-.4c.6,0,.8.1.9.7.3,1.4.6,3.1.7,4.2.2,0,.6,0,.8,0,.6-1.2,1.4-2.6,2.2-3.9.3,1.3.5,2.9.6,3.9.2,0,.6,0,.8,0,1.1-2.1,2.3-3.9,3.2-5.1.2-.3.4-.4.7-.5ZM9.5,16.7c.2-1.5,1-2.6,1.9-2.6s.7.3.7.7c0,1-.9,1.8-2.6,1.9Z"/>
  <path class="st0" d="M29.4,18.4h-.2c-.3.4-.6.6-.8.6s-.4-.2-.3-.6c.2-.9.3-1.7.4-2.1.2-1.1.5-1.9.8-2.4h-.2c-.7.3-1.3.7-1.7,1.3-.2-.9-.8-1.4-1.8-1.4-1.8,0-3.1,1.7-3.1,3.6s.8,2.4,2.1,2.4,1.5-.3,2-1c0,.6.3,1,1.1,1s1.4-.5,1.8-1.3ZM26.9,16.8c-.3,1.3-1,2.2-1.8,2.2s-1-.5-1-1.5c0-1.5.8-3.2,2-3.2s1.2.9.9,2.5Z"/>
  <path class="st8" d="M33.3,15.4h.2c.2-.3.6-1.2.9-1.5-.2-.1-.4-.2-.7-.2-.6,0-1.4.5-2,1.2.1-.4.2-.8.3-1.2h-.2c-.6.3-1.6.6-2.1.7v.2c.4,0,.5,0,.5.4,0,.6-.2.9-.3,1.6-.2.7-.3,1.5-.5,2.2,0,.3-.3.4-.7.5v.2c.4,0,.9,0,1.4,0s1,0,1.5,0v-.2c-.5,0-.6-.2-.6-.5.2-1,.4-2,.6-3,.2-.6.7-1,1.2-1s.5.2.5.6Z"/>
  <path class="st6" d="M42.8,16c-.7-.3-1-.6-1-1,0-.5.4-.9,1-.9s1.1.5,1.1,1.2h.2c.2-.4.5-.8.7-1.1-.4-.3-1.1-.5-1.9-.5-1.4,0-2.5.8-2.5,1.8,0,.7.4,1.2,1.4,1.7.8.4,1,.7,1.1,1.1,0,.6-.4,1-1,1s-1.2-.6-1.2-1.3h-.2c0,0-.2.2-.3.4h-.2c-.3.5-.6.6-.8.6s-.4-.2-.3-.6c.5-2.4.9-4.7,1.6-7.2h-.2c-.6.3-1.7.6-2.2.7v.2c.4,0,.5,0,.5.4,0,.4-.2,1.2-.5,2.3-.2-.7-.8-1.1-1.7-1.1-1.8,0-3.1,1.7-3.1,3.6s.8,2.4,2.1,2.4,1.5-.3,2.1-1.1c0,.6.3,1.1,1.1,1.1s.9-.2,1.3-.5c0,0,0,0,0,0,.4.3,1.2.5,2,.5,1.5,0,2.6-.8,2.6-1.8s-.4-1.3-1.4-1.8ZM37.7,16.8c-.3,1.3-.9,2.2-1.8,2.2s-1-.5-1-1.6.8-3.2,2-3.2,1.2.9.9,2.5Z"/>
  <path class="st7" d="M9.8,1.5c0,0,.1.1.2.2,0,0,0,.2,0,.3,0,.1,0,.3,0,.5v8.7c0,.2,0,.3,0,.4,0,.1,0,.2,0,.3,0,0-.1.1-.2.2,0,0-.2,0-.3.1h-.4v.6h4.5v-.4h-.4c-.1-.1-.2-.2-.3-.2,0,0-.1,0-.2-.1,0,0,0-.2,0-.3,0-.1,0-.3,0-.5v-5.4c.2,0,.4,0,.7-.1.3,0,.5,0,.8,0s.7,0,.8.3c.2.2.3.5.3,1v4.4c0,.2,0,.3,0,.5,0,.1,0,.2,0,.3,0,0,0,.1-.2.1,0,0-.2,0-.3,0h-.4v.5h4.5v-.4h-.4c-.1-.1-.2-.2-.3-.2,0,0-.1,0-.2-.1,0,0,0-.1,0-.3,0-.1,0-.2,0-.4v-5c0-.7-.2-1.3-.5-1.6-.4-.4-.9-.5-1.6-.5s-1.1.1-1.6.3c-.5.2-1,.5-1.4.8h0c0-.1,0-.3,0-.5,0-.2,0-.3,0-.5,0-.2,0-.4,0-.6v-1.1c0-.3,0-.5,0-.8,0-.2,0-.4,0-.6,0-.2,0-.4,0-.5h-.2c0-.1-3.6.2-3.6.2v.4l.6.3c.1,0,.2.1.3.2Z"/>
  <path class="st9" d="M19.9,11.7c.4.4.9.6,1.4.8.5.2,1.1.3,1.7.3s1.1,0,1.6-.3c.5-.2,1-.4,1.4-.8.4-.4.7-.8,1-1.4.2-.6.4-1.2.4-2s-.1-1.4-.4-1.9c-.2-.5-.6-1-1-1.4-.4-.4-.9-.6-1.4-.8-.5-.2-1.1-.3-1.7-.3s-1.1,0-1.6.3c-.5.2-1,.4-1.4.8-.4.4-.7.8-1,1.4-.3.6-.4,1.2-.4,2s.1,1.4.4,1.9c.2.5.6,1,1,1.4ZM21.4,6.4c0-.5.2-.8.3-1.1.1-.3.3-.4.5-.6.2-.1.4-.2.7-.2s.5,0,.7.1c.2,0,.4.3.6.6.2.3.3.7.3,1.2,0,.5.1,1.2.1,2s0,1.4-.1,1.9c0,.5-.2.8-.3,1.1-.1.3-.3.4-.5.5-.2,0-.4.1-.7.1s-.5,0-.8-.2c-.2-.1-.4-.3-.5-.6-.1-.3-.2-.7-.3-1.2,0-.5-.1-1.2-.1-2s0-1.3.1-1.7Z"/>
  <path class="st5" d="M33.5,12.6h3.1v-.4h-.3c-.2-.2-.4-.3-.6-.6-.2-.3-.4-.6-.7-.9-.2-.3-.5-.7-.7-1.1-.2-.4-.5-.8-.7-1.2-.2-.4-.5-.8-.7-1.2l1.5-1.5c.2-.2.3-.3.5-.5.1-.1.3-.2.4-.3.1,0,.2-.1.3-.2,0,0,.2,0,.3-.1h.3v-.5h-3.5v.4h.2c.4.2.6.3.6.6s0,.3-.1.5c0,.2-.3.4-.5.7l-1.8,2v.3c.3.6.7,1.3,1.1,1.9.4.7.9,1.4,1.4,2Z"/>
  <path class="st4" d="M28,1.5c0,0,.1.1.2.2,0,0,0,.2,0,.3,0,.1,0,.3,0,.5v8.7c0,.2,0,.3,0,.4,0,.1,0,.2,0,.3,0,0-.1.1-.2.2,0,0-.2,0-.3.1h-.4v.6h4.5v-.4h-.4c-.1-.1-.2-.2-.3-.2s-.1,0-.2-.1c0,0,0-.2,0-.3,0-.1,0-.3,0-.4V2.4c0-.3,0-.5,0-.8,0-.2,0-.4,0-.6,0-.2,0-.4,0-.5h-.2c0-.1-3.6.2-3.6.2v.4l.6.3c.1,0,.2.1.3.2Z"/>
  <path class="st3" d="M38,6.7c.4,0,.7,0,1.1.1.8.2,1.1.6,1.2,1.7,0,.5,0,1,0,1.4,0,0,0,0,0,0,0-.5,0-1.1.1-1.7.1-.8.3-1.1.9-1.3.5-.1.9-.1,1.4-.2,0,0,0,0,0,0-.5,0-1.5,0-1.9-.5-.4-.4-.4-1.2-.5-1.7,0-.4,0-.7,0-1.1h0c0,.5,0,1,0,1.5-.1,1.1-.4,1.4-1.3,1.6-.4,0-.7,0-1.1.1,0,0,0,0,0,0Z"/>
  <path class="st1" d="M3.8,6.7c.4,0,.7,0,1.1.1.8.2,1.1.6,1.2,1.7,0,.5,0,1,0,1.4,0,0,0,0,0,0,0-.5,0-1.1.1-1.7.1-.8.3-1.1.9-1.3.5-.1.9-.1,1.4-.2,0,0,0,0,0,0-.5,0-1.5,0-1.9-.5-.4-.4-.4-1.2-.5-1.7,0-.4,0-.7,0-1.1h0c0,.5,0,1,0,1.5-.1,1.1-.4,1.4-1.3,1.6-.4,0-.7,0-1.1.1,0,0,0,0,0,0Z"/>
</svg>