<svg width="27" height="18" viewBox="0 0 27 18" fill="none" xmlns="http://www.w3.org/2000/svg">
<path d="M2 4C4.4 4.26667 5.73333 5.6 6 8C6.26667 5.6 7.6 4.26667 10 4C7.6 3.73333 6.26667 2.4 6 0C5.73333 2.4 4.4 3.73333 2 4Z" fill="#C2A661"/>
<path d="M0 12.5C3.3 12.8667 5.13333 14.7 5.5 18C5.86667 14.7 7.7 12.8667 11 12.5C7.7 12.1333 5.86667 10.3 5.5 7C5.13333 10.3 3.3 12.1333 0 12.5Z" fill="#C2A661"/>
<path d="M13 7C17.2 7.46667 19.5333 9.8 20 14C20.4667 9.8 22.8 7.46667 27 7C22.8 6.53333 20.4667 4.2 20 0C19.5333 4.2 17.2 6.53333 13 7Z" fill="#C2A661"/>
</svg>
